<svg xmlns="http://www.w3.org/2000/svg" width="192" height="28" viewBox="0 0 192 28" fill="none"><path d="M26.4981 13.9784C26.4981 21.2951 20.5271 27.1273 13.2767 27.1273C5.91954 27.1273 0.0551758 21.1891 0.0551758 13.9784C0.0551758 6.66176 6.02617 0.829609 13.2767 0.829609C20.6338 0.829609 26.4981 6.66176 26.4981 13.9784Z" fill="#1C75BC"></path><path d="M26.4981 13.9784C26.4981 21.2951 20.5271 27.1273 13.2766 27.1273C5.91954 27.1273 0.0551758 21.1891 0.0551758 13.9784C0.0551758 6.66175 6.02616 0.829609 13.2766 0.829609C20.6338 0.829609 26.4981 6.66175 26.4981 13.9784Z" fill="#1C75BC"></path><g><path d="M6.13276 7.7219H18.7145V10.4789H6.13276V7.7219ZM5.27975 10.9031V12.0695H6.13276V14.2963H43.0249V12.0695H43.8779V10.9031H5.27975ZM30.0167 11.1152V7.40378H30.5498V5.91923H18.5012V7.40378H19.141V11.1152H30.0167Z" fill="white"></path><path d="M6.13278 14.7204H8.3719V29.2477H6.13278V14.7204ZM12.6368 14.7204H14.8761V29.2477H12.6368V14.7204ZM19.1411 14.7204H21.3802V29.2477H19.1411V14.7204Z" fill="white"></path></g><path d="M37.2875 2.19563C38.9934 2.19563 40.6993 2.76199 40.6993 4.74056C40.6993 5.56583 40.147 6.28771 39.4199 6.64926C40.4199 6.98077 40.9103 7.87885 40.9126 8.87608C40.9126 10.741 39.7209 11.7391 37.3941 11.6331H33.8755V2.19563H37.2875ZM39.2067 4.8466C39.2067 4.19324 38.6729 3.57413 37.7628 3.57413C37.0433 3.57413 36.1925 3.57413 35.5813 3.57413V6.22511C36.1467 6.22511 36.8703 6.21704 37.7628 6.21704C38.4872 6.21704 39.2046 5.48108 39.2067 4.8466ZM39.5266 8.87608C39.5438 8.03062 38.6797 7.39154 37.8324 7.39154C37.0211 7.39154 36.3233 7.39154 35.6881 7.39154V10.3606C36.3257 10.3606 37.0344 10.3606 37.9223 10.3606C38.8631 10.3606 39.5266 9.60876 39.5266 8.87608ZM49.0162 2.19563V3.57413H44.3247V6.11907H48.8029V7.49758H44.3247V10.3606H49.3361V11.7391H42.7253V2.19563H49.0162ZM50.7222 2.19563H54.0274C55.0063 2.19563 56.1714 2.31293 56.9064 3.04394C57.7375 3.87043 57.7299 5.43523 57.2262 6.43719C57.0129 6.86134 56.5865 7.17946 56.0534 7.49758L58.0793 11.6331H56.2666L54.5606 7.81569H52.3215V11.527H50.7222V2.19563ZM54.1342 6.64926C54.9365 6.64926 55.5643 6.45575 55.9468 5.69491C56.0534 5.48283 56.0534 5.27076 56.0534 5.05868C56.0534 4.62726 55.9348 4.30463 55.6268 3.99829C55.2306 3.60427 54.5444 3.57413 54.0274 3.57413H52.4281V6.64926H54.1342ZM60.958 2.19563V10.3606H65.6496L65.4364 11.7391H59.2522V2.19563H60.958ZM67.0358 2.19563H68.6351V11.7391H67.0358V2.19563ZM70.6609 2.19563H72.1537L76.5253 9.08816V2.19563H78.1246V11.7391H76.632L72.2603 4.8466V11.7391H70.6609V2.19563ZM98.5967 10.9969C97.8387 11.7507 96.8531 11.9512 95.8245 11.9512C94.5898 11.9512 93.5015 11.5497 92.6257 10.6787C91.8078 9.59422 91.4527 8.31454 91.4527 6.96738C91.4527 5.62331 91.8104 4.33712 92.6257 3.25602C93.5015 2.38501 94.5898 1.98355 95.8245 1.98355C97.4224 1.98355 98.3792 2.50745 99.2365 3.78621C99.4497 4.21037 99.5563 4.63452 99.663 5.05868L98.0636 5.27076C97.957 4.95264 97.8502 4.63452 97.7436 4.42245C97.4954 3.92882 97.1734 3.60873 96.6773 3.36206C95.7774 2.91458 94.318 3.43549 93.7986 4.21037C93.2843 4.97751 93.0521 5.9448 93.0521 6.86134C93.0521 7.77788 93.2843 8.74517 93.7986 9.51232C94.3273 10.301 95.7642 10.8147 96.6773 10.3606C97.3904 10.0061 97.957 9.27152 97.957 8.45193H99.663C99.663 9.37719 99.2498 10.3473 98.5967 10.9969ZM101.262 2.19563H102.862V6.01303H107.127V2.19563H108.726V11.7391H107.127V7.60361H102.862V11.7391H101.262V2.19563ZM114.91 11.9512C112.088 11.9512 110.539 9.66669 110.539 6.96738C110.539 5.06376 111.3 3.05934 113.204 2.30167C113.737 2.08959 114.377 1.98355 115.017 1.98355C117.836 1.98355 119.389 4.27012 119.389 6.96738C119.389 7.70965 119.282 8.45193 119.069 9.08816C118.448 10.9395 116.878 11.9512 114.91 11.9512ZM114.91 10.5727C116.932 10.5727 117.789 8.76776 117.789 6.96738C117.789 5.23282 116.988 3.36206 115.017 3.36206C113.112 3.36206 112.245 5.26246 112.245 6.96738C112.245 8.6539 112.938 10.5727 114.91 10.5727ZM133.037 2.19563V10.3606H137.728L137.515 11.7391H131.331V2.19563H133.037ZM158.52 2.19563V3.57413H154.148V6.33115H158.413V7.70965H154.148V11.7391H152.549V2.19563H158.52ZM44.1113 16.6169V22.343C44.1113 23.1913 44.3246 23.9336 44.6445 24.3578C44.9643 24.7819 45.4975 24.994 46.2438 24.994C46.9902 24.994 47.5233 24.7819 47.8432 24.3578C48.1631 23.9336 48.2698 23.2974 48.2698 22.343V16.6169H49.8692V22.343C49.8692 23.4071 49.7027 24.6292 48.9094 25.4181C48.1757 26.1478 47.1411 26.3725 46.1373 26.3725C44.9644 26.3725 44.0047 26.0544 43.365 25.4181C42.7252 24.7819 42.4054 23.7215 42.4054 22.343V16.6169H44.1113ZM53.7501 24.5409C54.7388 25.2783 57.4395 25.2434 57.4395 23.6155C57.4395 22.261 55.7941 22.2094 54.7738 22.0249C53.6698 21.8053 52.4062 21.5353 52.0017 20.3283C51.2249 18.0109 53.2446 16.4048 55.5203 16.4048C57.5714 16.4048 58.6411 17.2333 59.2522 19.0558L57.4395 19.2679C56.9279 16.7236 52.4279 18.0474 53.601 20.0102C54.1756 20.5815 55.2997 20.6275 56.0534 20.7524C57.6121 21.0969 59.0389 21.8351 59.0389 23.6155C59.0389 25.5341 57.1396 26.3725 55.4137 26.3725C53.3277 26.3725 51.5851 25.5177 51.3618 23.2974H53.0679C53.0679 23.186 53.3004 24.2724 53.7501 24.5409ZM60.6383 16.6169H62.2376V26.1604H60.6383V16.6169ZM65.8628 16.6169L70.2345 23.5094V16.6169H71.8339V26.1604H70.3411L65.8628 19.2679V26.1604H64.2634V16.6169H65.8628ZM73.8596 16.6169H80.2571V17.9954H75.5658V20.5404H80.044V21.9189H75.5658V24.7819H80.5771L80.3639 26.1604H73.9664V16.6169H73.8596ZM107.553 25.4181C106.858 26.1097 105.788 26.2835 104.994 26.2665C103.841 26.2417 102.238 25.8913 101.795 24.5698C101.37 23.2999 101.894 22.1392 102.862 21.1766L103.608 20.6464C103.16 19.9781 102.648 19.3696 102.648 18.5256C102.648 17.2722 103.926 16.4048 105.101 16.4048C106.356 16.4048 107.447 17.2016 107.447 18.5256C107.447 19.6144 106.629 20.5128 105.634 20.9645L107.618 23.1982C107.828 22.5744 107.907 22.0389 107.98 21.3887H109.366C109.366 22.4102 109.057 23.3773 108.513 24.3578L110.006 26.0544H108.193L107.553 25.4181ZM104.354 21.7068C103.394 22.3436 102.827 23.7932 103.608 24.5698C104.023 24.9826 104.653 24.994 105.207 24.994C105.646 24.994 106.449 24.72 106.807 24.3578L104.354 21.7068ZM104.888 20.2222C105.46 19.7967 106.18 19.4387 106.167 18.6317C106.16 18.1543 105.847 17.6773 105.207 17.6773C104.557 17.6773 104.141 18.1335 104.141 18.8437C104.141 19.4182 104.471 19.7072 104.888 20.2222ZM113.951 16.6169H115.55V26.1604H113.951V16.6169ZM117.576 16.6169H119.069L123.44 23.5094V16.6169H125.04V26.1604H123.547L119.175 19.2679V26.1604H117.576V16.6169ZM127.172 16.6169H128.665L133.037 23.5094V16.6169H134.636V26.1604H133.143L128.772 19.2679V26.1604H127.172V16.6169ZM145.618 16.6169H147.431L150.096 23.9336L152.762 16.6169H154.468L150.843 26.1604H149.243L145.618 16.6169ZM157.24 16.6169H158.84L162.465 26.1604H160.759L159.906 23.7215H156.174L155.321 26.1604H153.615L157.24 16.6169ZM159.373 22.343L157.987 18.4196L156.601 22.343H159.373ZM161.612 17.9954V16.6169H169.289V17.9954H166.303V26.1604H164.704V17.9954H161.612ZM170.568 16.6169H172.168V26.1604H170.568V16.6169ZM184.536 16.6169H186.029L190.401 23.5094V16.6169H192V26.1604H190.507L186.136 19.2679V26.1604H184.536V16.6169Z" fill="#1C75BC"></path><path d="M37.5381 16.1267C39.3695 16.1267 41.2007 16.7386 41.2007 18.8762C41.2007 19.7678 40.6078 20.5478 39.8273 20.9384C40.9008 21.2965 41.4272 22.2668 41.4296 23.3442C41.4296 25.3591 40.1504 26.4375 37.6526 26.3229H33.8755V16.1267H37.5381ZM39.5984 18.9908C39.5984 18.2849 39.0253 17.616 38.0484 17.616C37.2761 17.616 36.3628 17.616 35.7067 17.616V20.4801C36.3136 20.4801 37.0904 20.4714 38.0484 20.4714C38.8261 20.4714 39.5961 19.6763 39.5984 18.9908ZM39.9418 23.3442C39.9602 22.4308 39.0327 21.7403 38.1231 21.7403C37.2522 21.7403 36.5032 21.7403 35.8213 21.7403V24.9481C36.5057 24.9481 37.2664 24.9481 38.2197 24.9481C39.2296 24.9481 39.9418 24.1358 39.9418 23.3442Z" fill="#1C75BC"></path><path d="M125.3 11.9512C122.478 11.9512 120.928 9.66669 120.928 6.96738C120.928 5.06376 121.689 3.05934 123.594 2.30167C124.127 2.08959 124.767 1.98355 125.406 1.98355C128.226 1.98355 129.778 4.27012 129.778 6.96738C129.778 7.70965 129.671 8.45193 129.458 9.08816C128.838 10.9395 127.267 11.9512 125.3 11.9512ZM125.3 10.5727C127.321 10.5727 128.179 8.76776 128.179 6.96738C128.179 5.23282 127.377 3.36206 125.406 3.36206C123.501 3.36206 122.634 5.26246 122.634 6.96738C122.634 8.6539 123.328 10.5727 125.3 10.5727Z" fill="#1C75BC"></path><path d="M146.164 11.9512C143.341 11.9512 141.792 9.66669 141.792 6.96738C141.792 5.06376 142.553 3.05934 144.458 2.30167C144.991 2.08959 145.631 1.98355 146.27 1.98355C149.09 1.98355 150.642 4.27012 150.642 6.96738C150.642 7.70965 150.535 8.45193 150.322 9.08816C149.702 10.9395 148.131 11.9512 146.164 11.9512ZM146.164 10.5727C148.185 10.5727 149.043 8.76776 149.043 6.96738C149.043 5.23282 148.241 3.36206 146.27 3.36206C144.365 3.36206 143.498 5.26246 143.498 6.96738C143.498 8.6539 144.192 10.5727 146.164 10.5727Z" fill="#1C75BC"></path><path d="M140.768 26.2733C137.946 26.2733 136.396 23.9888 136.396 21.2895C136.396 19.3859 137.157 17.3815 139.062 16.6238C139.595 16.4117 140.235 16.3057 140.874 16.3057C143.694 16.3057 145.246 18.5923 145.246 21.2895C145.246 22.0318 145.139 22.7741 144.926 23.4103C144.306 25.2617 142.735 26.2733 140.768 26.2733ZM140.768 24.8948C142.789 24.8948 143.647 23.0899 143.647 21.2895C143.647 19.555 142.845 17.6842 140.874 17.6842C138.969 17.6842 138.102 19.5846 138.102 21.2895C138.102 22.976 138.796 24.8948 140.768 24.8948Z" fill="#1C75BC"></path><path d="M178.179 26.2733C175.357 26.2733 173.807 23.9888 173.807 21.2895C173.807 19.3859 174.568 17.3815 176.473 16.6238C177.006 16.4117 177.646 16.3057 178.286 16.3057C181.105 16.3057 182.657 18.5923 182.657 21.2895C182.657 22.0318 182.551 22.7741 182.337 23.4103C181.717 25.2617 180.147 26.2733 178.179 26.2733ZM178.179 24.8948C180.2 24.8948 181.058 23.0899 181.058 21.2895C181.058 19.555 180.256 17.6842 178.286 17.6842C176.38 17.6842 175.513 19.5846 175.513 21.2895C175.513 22.976 176.207 24.8948 178.179 24.8948Z" fill="#1C75BC"></path><path d="M92.5603 24.4417C93.5489 25.1791 96.2497 25.1441 96.2497 23.5162C96.2497 22.1617 94.6043 22.1101 93.584 21.9256C92.4799 21.706 91.2164 21.4361 90.8118 20.229C90.0351 17.9116 92.0547 16.3056 94.3305 16.3056C96.3816 16.3056 97.4513 17.1341 98.0623 18.9565L96.2497 19.1686C95.738 16.6243 91.238 17.9481 92.4112 19.9109C92.9857 20.4823 94.1098 20.5282 94.8636 20.6532C96.4223 20.9976 97.8491 21.7358 97.8491 23.5162C97.8491 25.4348 95.9498 26.2732 94.2238 26.2732C92.1379 26.2732 90.3952 25.4185 90.172 23.1981H91.8781C91.8781 23.0867 92.1106 24.1731 92.5603 24.4417Z" fill="#1C75BC"></path><path d="M85.0061 10.1196C85.9947 10.8571 88.6955 10.8221 88.6955 9.1942C88.6955 7.83969 87.0501 7.78809 86.0298 7.60362C84.9257 7.38402 83.6622 7.11404 83.2576 5.90699C82.4809 3.58963 84.5005 1.98355 86.7763 1.98355C88.8274 1.98355 89.8971 2.81205 90.5081 4.63452L88.6955 4.8466C88.1838 2.30231 83.6838 3.62608 84.857 5.58887C85.4315 6.16025 86.5556 6.20622 87.3094 6.33115C88.8681 6.67563 90.2949 7.41378 90.2949 9.1942C90.2949 11.1128 88.3956 11.9512 86.6696 11.9512C84.5837 11.9512 82.841 11.0965 82.6178 8.87608H84.3239C84.3239 8.76467 84.5564 9.8511 85.0061 10.1196Z" fill="#1C75BC"></path><path d="M83.5672 24.4417C84.5558 25.1791 87.2566 25.1441 87.2566 23.5162C87.2566 22.1617 85.6112 22.1101 84.5909 21.9256C83.4869 21.706 82.2233 21.4361 81.8188 20.229C81.042 17.9116 83.0616 16.3056 85.3374 16.3056C87.3885 16.3056 88.4582 17.1341 89.0692 18.9565L87.2566 19.1686C86.7449 16.6243 82.245 17.9481 83.4181 19.9109C83.9927 20.4823 85.1167 20.5282 85.8705 20.6532C87.4292 20.9976 88.856 21.7358 88.856 23.5162C88.856 25.4348 86.9567 26.2732 85.2308 26.2732C83.1448 26.2732 81.4022 25.4185 81.1789 23.1981H82.885C82.885 23.0867 83.1175 24.1731 83.5672 24.4417Z" fill="#1C75BC"></path></svg>