<svg xmlns="http://www.w3.org/2000/svg" width="115" height="26" viewBox="0 0 115 26" fill="none"><g><path d="M31.9938 7.73742V12.6141C31.9938 13.0981 31.9298 13.5538 31.8035 13.9695C31.6771 14.3926 31.4588 14.7667 31.1562 15.0829C30.8536 15.3991 30.445 15.65 29.9428 15.8296C29.4437 16.0077 28.8151 16.0983 28.0758 16.0983C27.4941 16.0983 26.9856 16.0374 26.5661 15.9157C26.145 15.794 25.7909 15.6336 25.5117 15.4362C25.231 15.2387 25.008 15.0101 24.8457 14.7533C24.6867 14.5024 24.5634 14.2456 24.4792 13.9888C24.395 13.7334 24.342 13.4811 24.3233 13.2406C24.3045 13.006 24.2952 12.7952 24.2952 12.6141V7.73742H25.1312V12.6141C25.1312 12.767 25.1405 12.9481 25.1577 13.15C25.1748 13.3489 25.2201 13.5568 25.2903 13.7661C25.3589 13.9754 25.4587 14.1847 25.5866 14.3881C25.7098 14.587 25.8814 14.7667 26.0966 14.9255C26.3134 15.0829 26.5832 15.212 26.9014 15.3085C27.2211 15.4035 27.6157 15.4525 28.0758 15.4525C28.6623 15.4525 29.1567 15.3857 29.5482 15.2536C29.9334 15.1229 30.2485 14.9344 30.4856 14.6924C30.7226 14.4505 30.8942 14.1521 30.9987 13.8077C31.1047 13.4558 31.1578 13.055 31.1578 12.6141V7.73742H31.9938Z" fill="black"></path><path d="M41.0724 7.73742V15.9201H40.1975L34.2176 8.73799V15.9201H33.391V7.73742H34.3065L40.2458 14.8646V7.73742H41.0724Z" fill="black"></path><path d="M43.2858 7.74656H42.5262V15.9293H43.2858V7.74656Z" fill="black"></path><path d="M52.304 7.73742L48.5358 15.9201H47.6827L43.9285 7.73742H44.816L48.1162 15.1318L51.4446 7.73742H52.304Z" fill="black"></path><path d="M59.962 15.2818V15.929H53.0666V7.73742H59.8934V8.38468H53.9042V11.3537H59.5362V12.001H53.9042V15.2818H59.962Z" fill="black"></path><path d="M68.4387 15.742C68.3779 15.6796 68.3295 15.5995 68.2952 15.503C68.2578 15.3976 68.2297 15.2833 68.2126 15.1615C68.1954 15.0383 68.1876 14.9017 68.1876 14.7577V14.3005C68.1876 14.0378 68.1689 13.7691 68.1315 13.5048C68.094 13.2317 68.0083 12.9778 67.8772 12.7507C67.7415 12.5191 67.5357 12.3216 67.2643 12.1628C67.1083 12.0722 66.918 11.9995 66.6981 11.9446C67.1286 11.8184 67.4826 11.6135 67.7587 11.3344C68.1408 10.947 68.3342 10.4645 68.3342 9.90186C68.3342 9.49807 68.25 9.15218 68.0847 8.87606C67.9178 8.59993 67.6838 8.37429 67.3906 8.20505C67.1036 8.04027 66.7652 7.91854 66.3846 7.84579C66.0119 7.77454 65.6048 7.73742 65.179 7.73742H61.0537V15.929H61.8803V12.3023H65.179C65.7249 12.3023 66.1507 12.3632 66.4439 12.482C66.7309 12.5992 66.9414 12.7551 67.0709 12.9437C67.2035 13.1366 67.283 13.3578 67.308 13.6028C67.3345 13.8611 67.3485 14.1268 67.3485 14.3896C67.3485 14.6568 67.3547 14.9196 67.3688 15.1704C67.3828 15.4391 67.4592 15.6767 67.5949 15.8786L67.6292 15.929H68.6196L68.4387 15.742ZM65.179 11.6551H61.8803V8.38468H65.179C65.4909 8.38468 65.7951 8.41288 66.0821 8.47078C66.3644 8.52719 66.6139 8.62072 66.8245 8.7469C67.0319 8.87012 67.2003 9.03342 67.3251 9.22937C67.4468 9.42236 67.5092 9.65989 67.5092 9.93601C67.5092 10.2359 67.4499 10.4972 67.3345 10.7109C67.2175 10.9247 67.0568 11.1028 66.8588 11.2409C66.656 11.3805 66.4096 11.4859 66.1257 11.5527C65.8356 11.6209 65.5174 11.6551 65.179 11.6551Z" fill="black"></path><path d="M76.5678 13.7572C76.5678 14.1937 76.4555 14.5648 76.2356 14.8647C76.0204 15.1571 75.7443 15.3991 75.4168 15.5847C75.0924 15.7673 74.7274 15.8994 74.3344 15.9796C73.9429 16.0583 73.5639 16.0983 73.2036 16.0983C72.6546 16.0983 72.1321 16.0479 71.6517 15.9469C71.1651 15.8445 70.7331 15.6738 70.3697 15.4422C70.0016 15.2076 69.7084 14.9018 69.4978 14.5322C69.2857 14.161 69.1827 13.7053 69.1921 13.1783L69.1937 13.0684H70.0031L69.9953 13.1872C69.9704 13.5999 70.0406 13.9517 70.2012 14.2308C70.3634 14.5129 70.5927 14.7474 70.8812 14.93C71.1729 15.1126 71.5238 15.2477 71.9215 15.3294C72.3255 15.4125 72.756 15.4541 73.2036 15.4541C73.4703 15.4541 73.7604 15.4258 74.0661 15.368C74.3671 15.3115 74.6479 15.215 74.899 15.08C75.1454 14.9478 75.356 14.7727 75.5213 14.5574C75.6819 14.3481 75.7646 14.0794 75.7646 13.7572C75.7646 13.4529 75.6819 13.202 75.5182 13.012C75.3497 12.816 75.122 12.6542 74.8428 12.5325C74.5543 12.4078 74.2221 12.3054 73.8571 12.2297C73.4875 12.1525 73.0991 12.0812 72.7045 12.0144C72.3161 11.9476 71.9262 11.8689 71.5457 11.7798C71.1573 11.6893 70.8095 11.5646 70.5085 11.4087C70.2012 11.2499 69.9486 11.0406 69.7583 10.7882C69.5633 10.5299 69.4635 10.1959 69.4635 9.79652C69.4635 9.39866 69.5633 9.05128 69.7614 8.76477C69.9563 8.48123 70.2121 8.24964 70.5241 8.07595C70.8313 7.90374 71.1791 7.77608 71.5613 7.69591C71.9387 7.61723 72.3161 7.57715 72.6858 7.57715C73.174 7.57715 73.6388 7.62465 74.0645 7.71818C74.4935 7.81319 74.8756 7.96461 75.2016 8.16651C75.5307 8.37137 75.7974 8.64007 75.9954 8.9637C76.1935 9.28881 76.3074 9.68221 76.3339 10.135L76.3417 10.2523H75.5369L75.5322 10.1454C75.5151 9.82472 75.4355 9.54266 75.2936 9.30811C75.1532 9.07207 74.9582 8.87166 74.7149 8.71281C74.4685 8.551 74.1706 8.42778 73.8275 8.34613C73.4812 8.263 73.096 8.22143 72.6858 8.22143C72.4362 8.22143 72.1617 8.24667 71.8716 8.29714C71.5878 8.34762 71.3211 8.43521 71.0778 8.55842C70.8407 8.67867 70.6442 8.84345 70.4913 9.04535C70.3432 9.24427 70.2667 9.49664 70.2667 9.79652C70.2667 10.086 70.3494 10.322 70.51 10.5002C70.6785 10.6872 70.9046 10.8387 71.1807 10.953C71.4646 11.0717 71.7968 11.1697 72.1664 11.241C72.5376 11.3137 72.9229 11.3835 73.3143 11.4503C73.7136 11.5186 74.1067 11.5987 74.481 11.6908C74.8647 11.7858 75.214 11.9164 75.5182 12.0797C75.8301 12.246 76.0859 12.4672 76.2762 12.7359C76.4696 13.0076 76.5678 13.352 76.5678 13.7572Z" fill="black"></path><path d="M78.4065 7.73742H77.6453V15.9068H78.4065V7.73742Z" fill="black"></path><path d="M94.618 7.73742L90.6377 12.528V15.9439H89.8126V12.528L86.4016 8.39359H83.2791V16.0938H82.4603V8.39359H79.1241V7.73742H86.8305L86.8648 7.78048L90.2384 11.8956L93.6604 7.73742H94.618Z" fill="black"></path><path d="M32.872 22.494L32.858 22.6172C32.8034 23.1042 32.6568 23.5599 32.4228 23.9711C32.1904 24.3823 31.8894 24.7431 31.5276 25.043C31.1673 25.3443 30.743 25.5818 30.2689 25.7481C29.7932 25.9159 29.2801 26.0005 28.7435 26.0005C28.0183 26.0005 27.3585 25.8891 26.7815 25.6694C26.2028 25.4497 25.7084 25.1439 25.3107 24.7594C24.9129 24.3749 24.6057 23.9162 24.3951 23.3966C24.1861 22.8785 24.0801 22.3159 24.0801 21.7265C24.0801 21.1357 24.1861 20.573 24.3951 20.0549C24.6057 19.5354 24.9129 19.0766 25.3107 18.6921C25.7084 18.3091 26.2028 18.0018 26.7815 17.7821C27.3585 17.5624 28.0183 17.4511 28.7435 17.4511C29.3144 17.4511 29.8166 17.5149 30.2361 17.6411C30.6541 17.7658 31.0144 17.9246 31.303 18.1117C31.5915 18.2987 31.8317 18.5066 32.0173 18.7293C32.2013 18.9505 32.3433 19.1627 32.44 19.3572C32.5351 19.5532 32.6037 19.7239 32.6412 19.8679C32.6973 20.0891 32.6973 20.1039 32.6973 20.1232V20.2346H31.8941L31.8769 20.1425C31.8177 19.8263 31.6945 19.5398 31.5088 19.2919C31.3217 19.041 31.0846 18.8228 30.8054 18.6461C30.5216 18.468 30.2018 18.3314 29.8556 18.2379C29.5062 18.1444 29.1319 18.0969 28.7435 18.0969C28.1384 18.0969 27.5925 18.1948 27.1183 18.3893C26.6442 18.5823 26.2387 18.8451 25.9127 19.1702C25.5867 19.4953 25.3341 19.8813 25.1625 20.3177C24.9894 20.7556 24.902 21.2292 24.902 21.7265C24.902 22.2224 24.9894 22.6959 25.1625 23.1339C25.3341 23.5703 25.5867 23.9563 25.9127 24.2814C26.2387 24.6065 26.6442 24.8693 27.1183 25.0623C27.5909 25.2567 28.1384 25.3547 28.7435 25.3547C29.1896 25.3547 29.6123 25.2775 30.0022 25.1231C30.3937 24.9702 30.7399 24.7639 31.0316 24.51C31.3217 24.2576 31.5588 23.9607 31.735 23.6297C31.9097 23.2986 32.0111 22.9513 32.036 22.5979L32.0438 22.494H32.872Z" fill="black"></path><path d="M37.6272 17.6424H36.8333L32.8764 25.8088H33.7654L34.9851 23.2614H39.4224L40.6296 25.8088H41.517L37.6272 17.6424ZM35.2799 22.6156L37.242 18.4782L39.1307 22.6156H35.2799Z" fill="black"></path><path d="M49.9504 17.6424V25.7954H49.0739L43.08 18.64V25.7954H42.2518V17.6424H43.1689L43.2032 17.684L49.1206 24.7429V17.6424H49.9504Z" fill="black"></path><path d="M55.7415 17.5937H54.9461L50.9907 25.8314H51.8782L53.0994 23.2602H57.5351L58.7423 25.8314H59.6282L55.7415 17.5937ZM53.3911 22.6114L55.3547 18.4354L57.245 22.6114H53.3911Z" fill="black"></path><path d="M72.9744 17.659L72.9432 17.5937H72.1477L68.1924 25.8314H69.0799L70.3011 23.2602H74.7352L75.9424 25.8314H76.8299L72.9744 17.659ZM74.4467 22.6114H70.5928L72.5564 18.4354L74.4467 22.6114Z" fill="black"></path><path d="M68.1609 20.2015C68.0174 19.7131 67.7647 19.2722 67.4107 18.8907C67.0566 18.5077 66.5794 18.1989 65.9929 17.9703C65.4065 17.7447 64.6641 17.6289 63.786 17.6289H60.4981V25.7952H63.7594C64.5471 25.7952 65.238 25.6898 65.8136 25.482C66.3907 25.2727 66.8773 24.9817 67.2578 24.6165C67.6384 24.2498 67.9238 23.8104 68.1048 23.3116C68.2841 22.8158 68.3761 22.2739 68.3761 21.7009C68.3761 21.1888 68.3028 20.684 68.1609 20.2015ZM63.814 25.1495H61.3279V18.2746H63.6908C63.9217 18.2746 64.1852 18.288 64.4738 18.3132C64.7592 18.3385 65.0478 18.3904 65.3332 18.4706C65.6155 18.5493 65.8931 18.6636 66.1598 18.8105C66.4218 18.9545 66.6558 19.1535 66.8586 19.4044C67.0613 19.6567 67.2282 19.9729 67.3545 20.3441C67.4809 20.7182 67.5448 21.1739 67.5448 21.7009C67.5448 22.3704 67.4325 22.9331 67.211 23.371C66.9896 23.8089 66.6979 24.1637 66.3439 24.422C65.9883 24.6818 65.5843 24.8704 65.146 24.9817C64.7015 25.0931 64.2539 25.1495 63.814 25.1495Z" fill="black"></path><path d="M92.0928 17.589L89.2557 25.794H88.4073L85.7761 18.7172L83.1449 25.794H82.2965L79.4594 17.589H80.3172L82.7378 24.6509L85.3534 17.589H86.2003L86.2268 17.6632L88.8143 24.6538L91.2365 17.589H92.0928Z" fill="black"></path><path d="M99.6886 25.1229V25.794H92.7589V17.589H99.6184V18.2585H93.5341V21.2112H99.372V21.8822H93.5341V25.1229H99.6886Z" fill="black"></path><path d="M107.545 23.6044C107.545 24.3154 107.205 25.9722 104.056 25.9722C101.452 25.9722 100.133 24.9865 100.133 23.0432V22.9319H100.907V23.0432C100.919 24.5634 101.934 25.3027 104.009 25.3027C105.72 25.3027 106.699 24.6955 106.699 23.637C106.699 22.8636 106.395 22.4598 104.584 22.1035L103.021 21.7903C101.08 21.3983 100.392 20.8223 100.392 19.5887C100.392 18.2452 101.651 17.4109 103.68 17.4109C105.996 17.4109 107.251 18.2897 107.309 19.9539L107.314 20.0697H106.543L106.535 19.9658C106.439 18.7143 105.529 18.0804 103.833 18.0804C102.109 18.0804 101.236 18.5911 101.236 19.6006C101.236 20.3532 101.52 20.7645 103.128 21.0688L104.854 21.3924C107.219 21.8333 107.545 22.7151 107.545 23.6044Z" fill="black"></path><path d="M115 17.589V18.2585H111.617V25.794H110.843V18.2585H107.459V17.589H115Z" fill="black"></path><path d="M0 0V15.7419H0.00155968C0.0748647 21.4024 4.91767 25.9703 10.8819 25.9703C12.0314 25.9703 13.1403 25.7996 14.1822 25.4834L14.1915 25.4596C14.4754 24.7619 13.942 24.4932 13.942 24.4932L8.93385 20.5978C8.93385 20.5978 9.84939 20.2341 10.1488 20.1064C10.4483 19.9802 10.2986 19.4889 10.2986 19.4889L9.43295 16.4782C9.43295 16.4782 11.3794 16.9058 12.0454 17.0008C12.7114 17.0958 12.8268 16.7321 12.8268 16.7321L13.3602 15.4643C13.3602 15.4643 15.1242 17.5872 15.8214 18.0622C16.5201 18.5373 16.3221 17.556 16.3221 17.556L15.157 12.0915C15.157 12.0915 16.7213 13.1217 17.1206 13.2628C17.5199 13.4053 17.6525 12.9941 17.6525 12.9941L19.418 9.58856L21.3474 13.1678C21.3957 13.3325 21.6 13.3073 21.7638 13.2568V0H0ZM6.01101 5.26413C6.01101 5.57143 5.97046 5.86091 5.89092 6.12516C5.80825 6.3998 5.66632 6.64326 5.4698 6.84961C5.27172 7.05596 5.00814 7.21925 4.68216 7.33505C4.36399 7.44936 3.96471 7.50725 3.49681 7.50725C3.12716 7.50725 2.80431 7.46865 2.5376 7.38997C2.26778 7.31129 2.0385 7.20738 1.85758 7.07971C1.67354 6.95055 1.52693 6.79913 1.42087 6.63138C1.31949 6.46957 1.23995 6.30479 1.18536 6.14C1.13077 5.97522 1.09802 5.81341 1.08554 5.65753C1.07462 5.51205 1.06838 5.37993 1.06838 5.26562V2.16444H1.78895V5.26413C1.78895 5.35617 1.79519 5.46454 1.80455 5.58627C1.81391 5.70207 1.84042 5.82231 1.88098 5.94405C1.92153 6.06578 1.97924 6.18751 2.0541 6.30627C2.12273 6.41761 2.22099 6.51856 2.34264 6.60911C2.46586 6.69967 2.62182 6.7739 2.80587 6.82882C2.99147 6.88524 3.22542 6.91344 3.49681 6.91344C3.84461 6.91344 4.13783 6.87336 4.36711 6.79616C4.58858 6.72045 4.76951 6.61357 4.90364 6.47699C5.03777 6.33893 5.13603 6.16969 5.1953 5.97225C5.25769 5.76442 5.28888 5.52689 5.28888 5.26413V2.16444H6.00945V5.26413H6.01101ZM12.3371 5.32054C12.3012 5.63675 12.2061 5.93217 12.0548 6.19938C11.9035 6.46511 11.7085 6.69818 11.4761 6.89266C11.2422 7.08713 10.9677 7.24152 10.6604 7.34989C10.3532 7.45826 10.0225 7.51319 9.67626 7.51319C9.21304 7.51319 8.7888 7.44193 8.4176 7.3009C8.04484 7.15839 7.7251 6.96095 7.46775 6.71303C7.21041 6.46511 7.01077 6.16821 6.87664 5.83122C6.7425 5.4972 6.67388 5.13646 6.67388 4.75642C6.67388 4.37787 6.7425 4.01565 6.87664 3.68163C7.01233 3.34612 7.21197 3.04922 7.46775 2.79982C7.7251 2.5519 8.04484 2.35297 8.4176 2.21195C8.7888 2.07091 9.21304 1.99966 9.67626 1.99966C10.0412 1.99966 10.3641 2.04122 10.6355 2.12139C10.9053 2.20155 11.1377 2.30547 11.3264 2.42572C11.5151 2.54745 11.6727 2.68402 11.7943 2.83099C11.9128 2.97499 12.0049 3.11305 12.0688 3.24072C12.1312 3.36691 12.1764 3.47973 12.2014 3.57623C12.2373 3.7128 12.2404 3.73358 12.2404 3.75882V3.92509H11.5526L11.526 3.78703C11.4917 3.60443 11.42 3.43965 11.3139 3.29713C11.2048 3.15165 11.0675 3.02398 10.9022 2.92155C10.7353 2.81615 10.5466 2.7345 10.3407 2.67957C10.1317 2.62464 9.90866 2.59644 9.67782 2.59644C9.31598 2.59644 8.98844 2.65433 8.7077 2.77013C8.4254 2.88444 8.18521 3.0418 7.99181 3.2333C7.79841 3.42629 7.64868 3.65491 7.5473 3.91321C7.44436 4.17449 7.39289 4.45803 7.39289 4.75494C7.39289 5.05184 7.44436 5.33539 7.5473 5.59667C7.64868 5.85646 7.79841 6.08508 7.99181 6.27806C8.18521 6.47105 8.4254 6.62693 8.7077 6.74124C8.98844 6.85703 9.31598 6.91493 9.67782 6.91493C9.94141 6.91493 10.1925 6.86891 10.4218 6.77835C10.6542 6.68631 10.8585 6.56458 11.0316 6.41464C11.2032 6.2647 11.3436 6.09101 11.4465 5.89506C11.5494 5.70207 11.6087 5.49869 11.6227 5.29085L11.6337 5.13498H12.3589L12.3371 5.32054ZM18.5711 7.34099H17.9067L16.3845 3.24666L14.8622 7.34099H14.1978L12.4073 2.16444H13.1481L14.544 6.23947L16.0522 2.16444H16.7135L18.2218 6.24095L19.6192 2.16444H20.3601L18.5711 7.34099Z" fill="#B42638"></path></g><defs><rect width="115" height="26" fill="white"></rect></defs></svg>