<svg xmlns="http://www.w3.org/2000/svg" viewBox="0 0 415.94 100"><defs> .cls-1 { fill: #1f2e41; } .cls-1, .cls-2 { stroke-width: 0px; } .cls-2 { fill: #169dd8; } </defs><g><path d="M167.72,19.59c-1.51,0-2.83-.26-3.94-.77-1.11-.51-1.98-1.31-2.59-2.38-.61-1.07-.91-2.44-.91-4.11V1.7c0-.19.06-.35.18-.47.12-.12.27-.18.44-.18h2.38c.19,0,.34.06.46.18.11.12.17.28.17.47v10.63c0,1.43.34,2.49,1.02,3.17.68.69,1.61,1.03,2.8,1.03s2.11-.34,2.78-1.03c.67-.69,1.01-1.75,1.01-3.17V1.7c0-.19.06-.35.18-.47s.28-.18.47-.18h2.35c.19,0,.34.06.46.18.11.12.17.28.17.47v10.63c0,1.67-.3,3.04-.9,4.11-.6,1.07-1.45,1.86-2.56,2.38-1.11.51-2.43.77-3.96.77Z"></path><path d="M179.01,19.33c-.17,0-.32-.06-.44-.18-.12-.12-.18-.27-.18-.44V6.37c0-.17.06-.32.18-.44.12-.12.27-.18.44-.18h2.14c.17,0,.32.06.44.18.12.12.18.27.18.44v1.07c.45-.56,1.03-1.02,1.74-1.4s1.58-.56,2.63-.56,1.99.24,2.77.72c.78.48,1.39,1.15,1.82,2.02.43.87.64,1.92.64,3.13v7.34c0,.17-.06.32-.18.44s-.27.18-.44.18h-2.3c-.17,0-.32-.06-.44-.18-.12-.12-.18-.27-.18-.44v-7.18c0-1.01-.25-1.8-.74-2.38-.5-.57-1.21-.86-2.16-.86s-1.63.29-2.17.86c-.54.57-.81,1.37-.81,2.38v7.18c0,.17-.06.32-.18.44-.12.12-.27.18-.44.18h-2.3Z"></path><path d="M194.89,3.5c-.17,0-.32-.06-.44-.18-.12-.12-.18-.27-.18-.44V.99c0-.17.06-.32.18-.44s.27-.18.44-.18h2.38c.19,0,.35.06.47.18.12.12.18.27.18.44v1.88c0,.17-.06.32-.18.44s-.28.18-.47.18h-2.38ZM195,19.33c-.17,0-.32-.06-.44-.18-.12-.12-.18-.27-.18-.44V6.37c0-.17.06-.32.18-.44.12-.12.27-.18.44-.18h2.17c.19,0,.34.06.46.18.11.12.17.27.17.44v12.33c0,.17-.06.32-.17.44-.11.12-.27.18-.46.18h-2.17Z"></path><path d="M205.79,19.33c-.28,0-.48-.07-.61-.2s-.24-.28-.33-.46l-4.88-12.12c-.04-.09-.05-.17-.05-.24,0-.16.06-.29.17-.4.11-.11.25-.17.4-.17h2.12c.21,0,.37.06.47.17.1.11.17.22.21.33l3.47,9.17,3.47-9.17c.03-.1.1-.21.21-.33.1-.11.26-.17.47-.17h2.14c.14,0,.27.06.38.17.11.11.17.25.17.4,0,.07,0,.15-.03.24l-4.91,12.12c-.07.17-.17.33-.31.46-.14.13-.35.2-.63.2h-1.93Z"></path><path d="M221.11,19.59c-1.93,0-3.47-.56-4.6-1.67-1.13-1.11-1.74-2.7-1.83-4.75-.02-.17-.03-.4-.03-.67s0-.48.03-.64c.07-1.32.37-2.46.9-3.41.53-.95,1.27-1.68,2.21-2.19.94-.51,2.05-.77,3.32-.77,1.41,0,2.59.29,3.55.88.96.58,1.68,1.39,2.17,2.43.49,1.04.73,2.23.73,3.59v.55c0,.17-.06.32-.18.44s-.28.18-.47.18h-8.67v.21c.02.61.13,1.17.35,1.69.22.51.54.93.97,1.24.43.31.94.47,1.53.47.49,0,.9-.07,1.23-.22.33-.15.6-.32.81-.51.21-.19.36-.35.44-.47.16-.21.28-.34.38-.38.1-.04.24-.07.43-.07h2.25c.17,0,.32.05.43.16.11.1.16.24.14.39-.02.28-.16.62-.43,1.02-.27.4-.66.79-1.16,1.18-.51.38-1.14.7-1.89.95-.76.25-1.62.38-2.6.38ZM218.24,11.36h5.77v-.08c0-.68-.11-1.28-.34-1.79-.23-.51-.56-.91-.99-1.2-.44-.29-.96-.43-1.57-.43s-1.13.14-1.57.43-.76.69-.98,1.2c-.22.51-.33,1.11-.33,1.79v.08Z"></path><path d="M230.71,19.33c-.17,0-.32-.06-.44-.18-.12-.12-.18-.27-.18-.44V6.4c0-.19.06-.35.18-.47.12-.12.27-.18.44-.18h2.12c.17,0,.33.06.46.18.13.12.2.28.2.47v1.07c.4-.56.92-.98,1.55-1.28.64-.3,1.37-.44,2.21-.44h1.07c.19,0,.34.06.46.18.11.12.17.27.17.44v1.88c0,.17-.06.32-.17.44-.11.12-.27.18-.46.18h-2.04c-.84,0-1.48.23-1.95.69s-.69,1.11-.69,1.95v7.18c0,.17-.06.32-.18.44-.12.12-.28.18-.47.18h-2.27Z"></path><path d="M246.21,19.59c-1.04,0-1.94-.12-2.68-.37-.74-.24-1.35-.55-1.82-.91s-.82-.73-1.05-1.1c-.23-.37-.35-.67-.37-.91-.02-.19.04-.34.17-.46.13-.11.27-.17.43-.17h2.06c.07,0,.13,0,.18.03.05.02.12.07.21.16.23.19.47.39.72.6.25.21.55.39.9.54.35.15.78.22,1.31.22.68,0,1.25-.13,1.71-.4.46-.27.69-.66.69-1.16,0-.37-.1-.66-.3-.89-.2-.23-.57-.43-1.11-.61-.54-.18-1.31-.38-2.3-.59-.98-.23-1.79-.51-2.43-.86-.64-.35-1.12-.78-1.44-1.31-.31-.52-.47-1.13-.47-1.83s.2-1.33.61-1.95c.41-.62,1.02-1.13,1.83-1.53.81-.4,1.82-.6,3.02-.6.94,0,1.76.12,2.46.35s1.28.53,1.74.88c.46.35.81.7,1.06,1.06.24.36.37.67.39.93.02.19-.04.34-.16.46-.12.11-.26.17-.42.17h-1.93c-.09,0-.17-.02-.24-.05-.07-.03-.14-.08-.21-.13-.19-.17-.4-.36-.63-.56-.23-.2-.5-.37-.82-.51-.32-.14-.74-.21-1.27-.21-.66,0-1.17.14-1.51.43-.35.29-.52.65-.52,1.08,0,.3.08.55.25.77.17.22.5.42,1.01.61.5.19,1.27.39,2.3.6,1.17.21,2.09.52,2.78.93.69.41,1.18.88,1.46,1.41.29.53.43,1.12.43,1.76,0,.78-.23,1.49-.69,2.12-.46.63-1.14,1.12-2.04,1.48-.9.36-2.01.54-3.33.54Z"></path><path d="M255.16,3.5c-.17,0-.32-.06-.44-.18-.12-.12-.18-.27-.18-.44V.99c0-.17.06-.32.18-.44.12-.12.27-.18.44-.18h2.38c.19,0,.35.06.47.18.12.12.18.27.18.44v1.88c0,.17-.06.32-.18.44-.12.12-.28.18-.47.18h-2.38ZM255.26,19.33c-.17,0-.32-.06-.44-.18-.12-.12-.18-.27-.18-.44V6.37c0-.17.06-.32.18-.44.12-.12.27-.18.44-.18h2.17c.19,0,.34.06.46.18s.17.27.17.44v12.33c0,.17-.06.32-.17.44-.11.12-.27.18-.46.18h-2.17Z"></path><path d="M267.51,19.33c-1.05,0-1.92-.18-2.64-.55-.71-.37-1.25-.91-1.59-1.63-.35-.72-.52-1.62-.52-2.7v-5.93h-2.06c-.17,0-.32-.06-.44-.18-.12-.12-.18-.28-.18-.47v-1.49c0-.17.06-.32.18-.44s.27-.18.44-.18h2.06V1.41c0-.17.06-.32.17-.44.11-.12.27-.18.46-.18h2.12c.17,0,.32.06.44.18.12.12.18.27.18.44v4.34h3.27c.17,0,.32.06.44.18.12.12.18.27.18.44v1.49c0,.19-.06.35-.18.47s-.27.18-.44.18h-3.27v5.67c0,.71.13,1.27.38,1.67.25.4.69.6,1.32.6h1.8c.17,0,.32.06.44.18.12.12.18.27.18.44v1.62c0,.17-.06.32-.18.44s-.27.18-.44.18h-2.12Z"></path><path d="M275.21,24.29c-.14,0-.26-.05-.37-.16s-.16-.23-.16-.37c0-.07,0-.14.01-.2s.04-.14.09-.22l2.04-4.83-5.02-11.83c-.07-.17-.1-.3-.1-.37.02-.16.08-.29.18-.4.1-.11.24-.17.39-.17h2.12c.21,0,.37.05.47.16.1.1.18.22.24.34l3.47,8.54,3.58-8.54c.05-.14.13-.26.24-.35.1-.1.26-.14.47-.14h2.09c.14,0,.27.05.38.16.11.1.17.23.17.37,0,.1-.04.24-.1.42l-7.39,17.11c-.07.14-.16.26-.26.35-.1.1-.26.14-.47.14h-2.06Z"></path><path d="M299.73,19.59c-1.39,0-2.56-.24-3.51-.73-.95-.49-1.67-1.18-2.17-2.06-.5-.89-.78-1.92-.85-3.11-.02-.31-.03-.7-.03-1.15s0-.84.03-1.15c.07-1.2.36-2.24.88-3.12.51-.88,1.24-1.56,2.19-2.05.95-.49,2.1-.73,3.46-.73s2.51.24,3.46.73c.95.49,1.68,1.17,2.19,2.05.51.88.81,1.92.88,3.12.02.31.03.7.03,1.15s0,.84-.03,1.15c-.07,1.18-.35,2.22-.85,3.11s-1.22,1.58-2.17,2.06-2.12.73-3.51.73ZM299.73,17.01c.92,0,1.64-.29,2.14-.88.5-.58.78-1.44.84-2.57.02-.26.03-.6.03-1.02s0-.76-.03-1.02c-.05-1.13-.33-1.99-.84-2.57-.51-.58-1.22-.87-2.14-.87s-1.64.29-2.14.87c-.51.58-.78,1.44-.84,2.57-.02.26-.03.6-.03,1.02s0,.76.03,1.02c.05,1.13.33,1.99.84,2.57.5.58,1.22.88,2.14.88Z"></path><path d="M311.01,19.33c-.17,0-.32-.06-.44-.18-.12-.12-.18-.27-.18-.44v-10.19h-2.12c-.17,0-.32-.06-.44-.18-.12-.12-.18-.28-.18-.47v-1.49c0-.17.06-.32.18-.44.12-.12.27-.18.44-.18h2.12v-1.07c0-1.04.19-1.91.57-2.6.38-.69.95-1.21,1.7-1.55.75-.35,1.7-.52,2.85-.52h1.78c.19,0,.34.06.46.18.11.12.17.27.17.44v1.49c0,.19-.06.35-.17.47-.11.12-.27.18-.46.18h-1.67c-.7,0-1.18.17-1.44.52-.26.35-.39.85-.39,1.52v.94h3.24c.19,0,.34.06.46.18.11.12.17.27.17.44v1.49c0,.19-.06.35-.17.47-.11.12-.27.18-.46.18h-3.24v10.19c0,.17-.06.32-.18.44-.12.12-.27.18-.44.18h-2.14Z"></path><path d="M324.91,19.33c-.14,0-.27-.05-.38-.16-.11-.1-.17-.24-.17-.39,0-.07.02-.15.05-.24l6.3-16.85c.05-.17.15-.33.3-.46.15-.13.35-.2.61-.2h2.85c.26,0,.46.07.6.2.14.13.24.28.31.46l6.3,16.85c.02.09.03.17.03.24,0,.16-.05.29-.16.39-.1.1-.23.16-.37.16h-2.27c-.24,0-.42-.06-.54-.17-.11-.11-.19-.22-.22-.33l-1.23-3.19h-7.76l-1.23,3.19c-.04.1-.11.21-.22.33s-.29.17-.54.17h-2.27ZM330.08,12.64h5.93l-2.98-8.07-2.95,8.07Z"></path><path d="M344.44,24.29c-.17,0-.32-.06-.44-.18-.12-.12-.18-.27-.18-.44V6.37c0-.17.06-.32.18-.44.12-.12.27-.18.44-.18h2.06c.19,0,.34.06.46.18.11.12.17.27.17.44v1.05c.42-.56.97-1.02,1.65-1.38s1.52-.55,2.53-.55c.92,0,1.72.15,2.4.44s1.25.72,1.7,1.27.8,1.2,1.05,1.95c.24.75.38,1.58.42,2.48.02.3.03.6.03.91s0,.63-.03.94c-.02.87-.15,1.68-.39,2.42-.24.74-.6,1.38-1.06,1.93-.46.55-1.03.98-1.71,1.29-.68.31-1.48.47-2.4.47s-1.74-.17-2.4-.51c-.66-.34-1.2-.79-1.62-1.35v5.93c0,.17-.06.32-.17.44-.11.12-.27.18-.46.18h-2.22ZM350.34,16.8c.75,0,1.33-.16,1.75-.48.42-.32.72-.74.91-1.27s.3-1.1.34-1.72c.02-.52.02-1.05,0-1.57-.04-.63-.15-1.2-.34-1.72-.19-.52-.5-.94-.91-1.27-.42-.32-1-.48-1.75-.48s-1.29.17-1.74.5c-.44.33-.77.75-.97,1.27-.2.51-.32,1.04-.35,1.58-.02.31-.03.64-.03.99s0,.69.03,1.02c.02.52.14,1.02.37,1.5.23.48.56.88.99,1.19.44.31,1,.47,1.7.47Z"></path><path d="M360.21,24.29c-.17,0-.32-.06-.44-.18-.12-.12-.18-.27-.18-.44V6.37c0-.17.06-.32.18-.44.12-.12.27-.18.44-.18h2.06c.19,0,.34.06.46.18.11.12.17.27.17.44v1.05c.42-.56.97-1.02,1.65-1.38s1.52-.55,2.53-.55c.92,0,1.72.15,2.4.44s1.24.72,1.7,1.27c.45.55.8,1.2,1.04,1.95.24.75.38,1.58.42,2.48.02.3.03.6.03.91s0,.63-.03.94c-.02.87-.15,1.68-.39,2.42-.24.74-.6,1.38-1.06,1.93-.46.55-1.03.98-1.71,1.29-.68.31-1.48.47-2.4.47s-1.74-.17-2.4-.51-1.2-.79-1.62-1.35v5.93c0,.17-.06.32-.17.44-.11.12-.27.18-.46.18h-2.22ZM366.11,16.8c.75,0,1.33-.16,1.75-.48.42-.32.72-.74.91-1.27.19-.52.3-1.1.34-1.72.02-.52.02-1.05,0-1.57-.04-.63-.15-1.2-.34-1.72-.19-.52-.5-.94-.91-1.27-.42-.32-1-.48-1.75-.48s-1.29.17-1.74.5c-.44.33-.77.75-.97,1.27-.2.51-.32,1.04-.35,1.58-.02.31-.03.64-.03.99s0,.69.03,1.02c.02.52.14,1.02.37,1.5.23.48.56.88.99,1.19.44.31,1,.47,1.7.47Z"></path><path d="M375.98,19.33c-.17,0-.32-.06-.44-.18-.12-.12-.18-.27-.18-.44V1.41c0-.17.06-.32.18-.44.12-.12.27-.18.44-.18h2.17c.17,0,.32.06.44.18.12.12.18.27.18.44v17.29c0,.17-.06.32-.18.44s-.27.18-.44.18h-2.17Z"></path><path d="M382.48,3.5c-.17,0-.32-.06-.44-.18-.12-.12-.18-.27-.18-.44V.99c0-.17.06-.32.18-.44s.27-.18.44-.18h2.38c.19,0,.35.06.47.18.12.12.18.27.18.44v1.88c0,.17-.06.32-.18.44s-.28.18-.47.18h-2.38ZM382.59,19.33c-.17,0-.32-.06-.44-.18-.12-.12-.18-.27-.18-.44V6.37c0-.17.06-.32.18-.44.12-.12.27-.18.44-.18h2.17c.19,0,.34.06.46.18.11.12.17.27.17.44v12.33c0,.17-.06.32-.17.44-.11.12-.27.18-.46.18h-2.17Z"></path><path d="M394.38,19.59c-1.93,0-3.47-.56-4.6-1.67-1.13-1.11-1.74-2.7-1.83-4.75-.02-.17-.03-.4-.03-.67s0-.48.03-.64c.07-1.32.37-2.46.9-3.41.53-.95,1.27-1.68,2.21-2.19.94-.51,2.05-.77,3.32-.77,1.41,0,2.59.29,3.55.88.96.58,1.68,1.39,2.17,2.43.49,1.04.73,2.23.73,3.59v.55c0,.17-.06.32-.18.44-.12.12-.28.18-.47.18h-8.67v.21c.02.61.13,1.17.35,1.69.22.51.54.93.97,1.24.43.31.94.47,1.53.47.49,0,.9-.07,1.23-.22.33-.15.6-.32.81-.51.21-.19.36-.35.44-.47.16-.21.28-.34.38-.38.1-.04.24-.07.43-.07h2.25c.17,0,.32.05.43.16.11.1.16.24.14.39-.02.28-.16.62-.43,1.02-.27.4-.66.79-1.16,1.18-.51.38-1.14.7-1.89.95s-1.62.38-2.6.38ZM391.51,11.36h5.77v-.08c0-.68-.11-1.28-.34-1.79-.23-.51-.56-.91-.99-1.2-.44-.29-.96-.43-1.57-.43s-1.13.14-1.57.43c-.44.29-.76.69-.98,1.2s-.33,1.11-.33,1.79v.08Z"></path><path d="M408.45,19.59c-.91,0-1.7-.15-2.39-.46-.69-.3-1.26-.74-1.71-1.29-.45-.56-.8-1.21-1.05-1.97-.24-.76-.38-1.59-.42-2.49-.02-.31-.03-.6-.03-.85s0-.54.03-.85c.04-.87.17-1.68.4-2.43.24-.75.58-1.41,1.05-1.97.46-.57,1.04-1.01,1.72-1.32.69-.31,1.48-.47,2.39-.47s1.74.16,2.39.48c.65.32,1.2.74,1.63,1.24V1.41c0-.17.06-.32.17-.44.11-.12.27-.18.46-.18h2.22c.17,0,.32.06.44.18.12.12.18.27.18.44v17.29c0,.17-.06.32-.18.44-.12.12-.27.18-.44.18h-2.06c-.19,0-.34-.06-.46-.18-.11-.12-.17-.27-.17-.44v-.97c-.44.54-.99.98-1.66,1.33-.67.35-1.51.52-2.52.52ZM409.41,16.8c.73,0,1.31-.17,1.75-.5.44-.33.76-.75.97-1.27.21-.51.32-1.04.34-1.58.02-.31.03-.65.03-1.01s0-.69-.03-1.01c-.02-.52-.14-1.02-.37-1.5-.23-.48-.56-.88-.99-1.19-.44-.31-1-.47-1.7-.47-.73,0-1.31.16-1.74.48-.43.32-.74.74-.93,1.27-.19.52-.3,1.1-.34,1.72-.02.52-.02,1.04,0,1.57.03.63.15,1.2.34,1.72.19.52.5.95.93,1.27.43.32,1.01.48,1.74.48Z"></path><path d="M166.78,50.94c-1.62,0-2.97-.24-4.06-.72-1.09-.48-1.92-1.11-2.48-1.88-.57-.77-.87-1.59-.9-2.44,0-.16.05-.29.16-.39s.24-.16.39-.16h2.32c.23,0,.4.05.51.14.11.1.21.21.3.35.1.33.3.66.6.98.3.32.7.59,1.21.8.51.21,1.16.31,1.95.31,1.25,0,2.19-.21,2.81-.63.62-.42.93-.98.93-1.7,0-.5-.17-.91-.5-1.21-.33-.3-.84-.58-1.53-.84-.69-.25-1.6-.52-2.73-.8-1.31-.31-2.4-.69-3.28-1.14-.88-.44-1.54-1.01-1.99-1.69-.44-.68-.67-1.54-.67-2.59s.27-1.91.82-2.69c.55-.78,1.33-1.4,2.35-1.85,1.02-.45,2.23-.68,3.64-.68,1.13,0,2.13.15,3,.46.87.3,1.59.71,2.17,1.2s1.01,1.03,1.32,1.59c.3.57.47,1.12.48,1.66,0,.14-.05.27-.14.38-.1.11-.23.17-.4.17h-2.43c-.14,0-.28-.03-.42-.1-.14-.07-.25-.2-.34-.39-.1-.54-.44-1-1.02-1.38-.57-.38-1.32-.57-2.22-.57s-1.7.17-2.27.52c-.57.35-.86.89-.86,1.62,0,.49.14.89.43,1.21.29.32.75.61,1.38.85.64.24,1.48.51,2.52.78,1.48.33,2.69.71,3.63,1.15.94.44,1.63.99,2.06,1.66.43.67.65,1.52.65,2.55,0,1.15-.31,2.13-.93,2.94-.62.81-1.49,1.43-2.6,1.87-1.11.44-2.41.65-3.89.65Z"></path><path d="M182.72,50.94c-1.25,0-2.36-.24-3.3-.71-.95-.47-1.69-1.15-2.22-2.05-.53-.9-.82-1.98-.88-3.25-.02-.26-.03-.6-.03-1.03s0-.78.03-1.06c.05-1.27.34-2.36.88-3.25.53-.9,1.27-1.58,2.22-2.05.95-.47,2.05-.71,3.3-.71,1.11,0,2.06.15,2.85.46.78.3,1.43.7,1.93,1.18.5.48.88.98,1.14,1.49.25.51.39.98.4,1.4.02.19-.04.34-.17.46-.13.11-.28.17-.46.17h-2.3c-.17,0-.31-.04-.4-.13-.1-.09-.19-.22-.27-.39-.26-.7-.61-1.19-1.03-1.48-.43-.29-.97-.43-1.63-.43-.87,0-1.56.27-2.08.82-.51.55-.79,1.41-.82,2.6-.04.66-.04,1.27,0,1.83.04,1.2.31,2.07.82,2.61.51.54,1.21.81,2.08.81.68,0,1.23-.14,1.65-.43.42-.29.76-.78,1.02-1.48.09-.17.18-.3.27-.39.1-.09.23-.13.4-.13h2.3c.17,0,.33.06.46.17.13.11.19.27.17.46-.02.31-.1.67-.25,1.06-.15.39-.38.79-.71,1.2-.32.41-.73.78-1.21,1.12-.49.34-1.08.61-1.76.82-.69.21-1.49.31-2.39.31Z"></path><path d="M192,34.85c-.17,0-.32-.06-.44-.18-.12-.12-.18-.27-.18-.44v-1.88c0-.17.06-.32.18-.44.12-.12.27-.18.44-.18h2.38c.19,0,.35.06.47.18.12.12.18.27.18.44v1.88c0,.17-.06.32-.18.44-.12.12-.28.18-.47.18h-2.38ZM192.1,50.68c-.17,0-.32-.06-.44-.18-.12-.12-.18-.27-.18-.44v-12.33c0-.17.06-.32.18-.44.12-.12.27-.18.44-.18h2.17c.19,0,.34.06.46.18s.17.27.17.44v12.33c0,.17-.06.32-.17.44-.11.12-.27.18-.46.18h-2.17Z"></path><path d="M203.9,50.94c-1.93,0-3.47-.56-4.6-1.67-1.13-1.11-1.74-2.7-1.83-4.75-.02-.17-.03-.4-.03-.67s0-.48.03-.64c.07-1.32.37-2.46.9-3.41.53-.95,1.27-1.68,2.21-2.19.94-.51,2.05-.77,3.32-.77,1.41,0,2.59.29,3.55.88.96.58,1.68,1.39,2.17,2.43.49,1.04.73,2.23.73,3.59v.55c0,.17-.06.32-.18.44s-.28.18-.47.18h-8.67v.21c.02.61.13,1.17.35,1.69.22.51.54.93.97,1.24.43.31.94.47,1.53.47.49,0,.9-.07,1.23-.22.33-.15.6-.32.81-.51.21-.19.36-.35.44-.47.16-.21.28-.34.38-.38.1-.04.24-.07.43-.07h2.25c.17,0,.32.05.43.16.11.1.16.24.14.39-.02.28-.16.62-.43,1.02-.27.4-.66.79-1.16,1.18-.51.38-1.14.7-1.89.95-.76.25-1.62.38-2.6.38ZM201.03,42.71h5.77v-.08c0-.68-.11-1.28-.34-1.79s-.56-.91-.99-1.2c-.44-.29-.96-.43-1.57-.43s-1.13.14-1.57.43c-.44.29-.76.69-.98,1.2-.22.51-.33,1.11-.33,1.79v.08Z"></path><path d="M213.5,50.68c-.17,0-.32-.06-.44-.18-.12-.12-.18-.27-.18-.44v-12.33c0-.17.06-.32.18-.44.12-.12.27-.18.44-.18h2.14c.17,0,.32.06.44.18.12.12.18.27.18.44v1.07c.45-.56,1.03-1.02,1.74-1.4s1.58-.56,2.63-.56,1.99.24,2.77.72c.78.48,1.39,1.15,1.82,2.02.43.87.64,1.92.64,3.13v7.34c0,.17-.06.32-.18.44s-.27.18-.44.18h-2.3c-.17,0-.32-.06-.44-.18-.12-.12-.18-.27-.18-.44v-7.18c0-1.01-.25-1.8-.74-2.38-.5-.57-1.21-.86-2.16-.86s-1.63.29-2.17.86c-.54.57-.81,1.37-.81,2.38v7.18c0,.17-.06.32-.18.44-.12.12-.27.18-.44.18h-2.3Z"></path><path d="M234.76,50.94c-1.25,0-2.36-.24-3.3-.71-.95-.47-1.69-1.15-2.22-2.05-.53-.9-.82-1.98-.88-3.25-.02-.26-.03-.6-.03-1.03s0-.78.03-1.06c.05-1.27.34-2.36.88-3.25.53-.9,1.27-1.58,2.22-2.05.95-.47,2.05-.71,3.3-.71,1.11,0,2.06.15,2.85.46.78.3,1.43.7,1.93,1.18.5.48.88.98,1.14,1.49.25.51.39.98.4,1.4.02.19-.04.34-.17.46-.13.11-.28.17-.46.17h-2.3c-.17,0-.31-.04-.4-.13-.1-.09-.19-.22-.27-.39-.26-.7-.61-1.19-1.03-1.48-.43-.29-.97-.43-1.63-.43-.87,0-1.56.27-2.08.82-.51.55-.79,1.41-.82,2.6-.04.66-.04,1.27,0,1.83.03,1.2.31,2.07.82,2.61.51.54,1.21.81,2.08.81.68,0,1.23-.14,1.65-.43.42-.29.76-.78,1.02-1.48.09-.17.18-.3.27-.39.1-.09.23-.13.4-.13h2.3c.17,0,.33.06.46.17.13.11.19.27.17.46-.02.31-.1.67-.25,1.06-.15.39-.38.79-.71,1.2-.32.41-.73.78-1.21,1.12-.49.34-1.08.61-1.76.82-.69.21-1.48.31-2.39.31Z"></path><path d="M249.44,50.94c-1.93,0-3.47-.56-4.6-1.67-1.13-1.11-1.74-2.7-1.83-4.75-.02-.17-.03-.4-.03-.67s0-.48.03-.64c.07-1.32.37-2.46.9-3.41.53-.95,1.27-1.68,2.21-2.19.94-.51,2.05-.77,3.32-.77,1.41,0,2.59.29,3.55.88.96.58,1.68,1.39,2.17,2.43.49,1.04.73,2.23.73,3.59v.55c0,.17-.06.32-.18.44-.12.12-.28.18-.47.18h-8.67v.21c.02.61.13,1.17.35,1.69.22.51.54.93.97,1.24.43.31.94.47,1.53.47.49,0,.9-.07,1.23-.22.33-.15.6-.32.81-.51.21-.19.36-.35.44-.47.16-.21.28-.34.38-.38.1-.04.24-.07.43-.07h2.25c.17,0,.32.05.43.16.11.1.16.24.14.39-.02.28-.16.62-.43,1.02-.27.4-.66.79-1.16,1.18-.51.38-1.14.7-1.89.95-.76.25-1.62.38-2.6.38ZM246.56,42.71h5.77v-.08c0-.68-.11-1.28-.34-1.79s-.56-.91-.99-1.2c-.44-.29-.96-.43-1.57-.43s-1.13.14-1.57.43c-.44.29-.76.69-.98,1.2-.22.51-.33,1.11-.33,1.79v.08Z"></path><path d="M263.55,50.94c-1.04,0-1.94-.12-2.68-.37-.74-.24-1.35-.55-1.82-.91s-.82-.73-1.04-1.1c-.23-.37-.35-.67-.37-.91-.02-.19.04-.34.17-.46.13-.11.27-.17.43-.17h2.06c.07,0,.13,0,.18.03.05.02.12.07.21.16.23.19.47.39.72.6.25.21.55.39.9.54.35.15.78.22,1.31.22.68,0,1.25-.13,1.71-.4.46-.27.69-.66.69-1.16,0-.37-.1-.66-.3-.89-.2-.23-.57-.43-1.11-.61s-1.31-.38-2.3-.59c-.98-.23-1.79-.51-2.43-.86-.64-.35-1.12-.78-1.44-1.31-.31-.52-.47-1.13-.47-1.83s.2-1.33.61-1.95c.41-.62,1.02-1.13,1.83-1.53.81-.4,1.82-.6,3.02-.6.94,0,1.76.12,2.46.35.7.24,1.28.53,1.74.88.46.35.81.7,1.06,1.06s.37.67.39.93c.02.19-.04.34-.16.46-.12.11-.26.17-.42.17h-1.93c-.09,0-.17-.02-.24-.05-.07-.03-.14-.08-.21-.13-.19-.17-.4-.36-.63-.56-.23-.2-.5-.37-.82-.51s-.74-.21-1.27-.21c-.66,0-1.17.14-1.51.43-.35.29-.52.65-.52,1.08,0,.3.08.55.25.77.17.22.5.42,1.01.61.5.19,1.27.39,2.3.6,1.17.21,2.09.52,2.78.93.69.41,1.18.88,1.46,1.41.29.53.43,1.12.43,1.76,0,.78-.23,1.49-.69,2.12-.46.63-1.14,1.12-2.04,1.48-.9.36-2.01.54-3.33.54Z"></path><path d="M279.22,50.68c-.17,0-.32-.06-.44-.18-.12-.12-.18-.27-.18-.44v-17.01c0-.19.06-.35.18-.47s.27-.18.44-.18h11.49c.19,0,.35.06.47.18.12.12.18.28.18.47v1.72c0,.17-.06.32-.18.44-.12.12-.28.18-.47.18h-8.59v4.62h8.02c.19,0,.35.06.47.17.12.11.18.27.18.46v1.62c0,.19-.06.34-.18.46-.12.11-.28.17-.47.17h-8.02v4.78h8.8c.19,0,.35.06.47.18.12.12.18.28.18.47v1.72c0,.17-.06.32-.18.44-.12.12-.28.18-.47.18h-11.7Z"></path><path d="M298.98,50.94c-1.06,0-1.98-.24-2.76-.72-.77-.48-1.37-1.16-1.79-2.04-.42-.88-.63-1.92-.63-3.12v-7.34c0-.17.06-.32.18-.44.12-.12.27-.18.44-.18h2.3c.19,0,.34.06.46.18s.17.27.17.44v7.18c0,2.16.95,3.24,2.85,3.24.91,0,1.62-.29,2.16-.86.53-.57.8-1.37.8-2.38v-7.18c0-.17.06-.32.18-.44s.27-.18.44-.18h2.3c.17,0,.32.06.44.18.12.12.18.27.18.44v12.33c0,.17-.06.32-.18.44s-.27.18-.44.18h-2.12c-.19,0-.34-.06-.46-.18-.11-.12-.17-.27-.17-.44v-1.07c-.47.61-1.05,1.09-1.75,1.44-.7.35-1.57.52-2.61.52Z"></path><path d="M310.49,50.68c-.17,0-.32-.06-.44-.18-.12-.12-.18-.27-.18-.44v-12.3c0-.19.06-.35.18-.47.12-.12.27-.18.44-.18h2.12c.17,0,.33.06.46.18.13.12.2.28.2.47v1.07c.4-.56.92-.98,1.55-1.28.64-.3,1.37-.44,2.21-.44h1.07c.19,0,.34.06.46.18.11.12.17.27.17.44v1.88c0,.17-.06.32-.17.44-.11.12-.27.18-.46.18h-2.04c-.84,0-1.49.23-1.95.69s-.69,1.11-.69,1.95v7.18c0,.17-.06.32-.18.44-.12.12-.28.18-.47.18h-2.27Z"></path><path d="M326.65,50.94c-1.39,0-2.56-.24-3.51-.73-.95-.49-1.67-1.18-2.17-2.06s-.78-1.92-.85-3.11c-.02-.31-.03-.7-.03-1.15s0-.84.03-1.15c.07-1.2.36-2.24.88-3.12.51-.88,1.25-1.56,2.19-2.05.95-.49,2.1-.73,3.46-.73s2.51.24,3.46.73c.95.49,1.68,1.17,2.19,2.05.51.88.81,1.92.88,3.12.02.31.03.7.03,1.15s0,.84-.03,1.15c-.07,1.18-.35,2.22-.85,3.11-.5.89-1.22,1.58-2.17,2.06s-2.12.73-3.51.73ZM326.65,48.35c.92,0,1.64-.29,2.14-.88.51-.58.78-1.44.84-2.57.02-.26.03-.6.03-1.02s0-.76-.03-1.02c-.05-1.13-.33-1.99-.84-2.57-.51-.58-1.22-.87-2.14-.87s-1.64.29-2.14.87c-.51.58-.78,1.44-.84,2.57-.02.26-.03.6-.03,1.02s0,.76.03,1.02c.05,1.13.33,1.99.84,2.57.51.58,1.22.88,2.14.88Z"></path><path d="M336.48,55.64c-.17,0-.32-.06-.44-.18-.12-.12-.18-.27-.18-.44v-17.29c0-.17.06-.32.18-.44.12-.12.27-.18.44-.18h2.06c.19,0,.34.06.46.18.11.12.17.27.17.44v1.05c.42-.56.97-1.02,1.65-1.38s1.52-.55,2.53-.55c.92,0,1.72.15,2.4.44s1.25.72,1.7,1.27.8,1.2,1.05,1.95c.24.75.38,1.58.42,2.48.02.3.03.6.03.91s0,.63-.03.94c-.02.87-.15,1.68-.39,2.42-.24.74-.6,1.38-1.06,1.93-.46.55-1.03.98-1.71,1.29-.68.31-1.48.47-2.4.47s-1.74-.17-2.4-.51c-.66-.34-1.2-.79-1.62-1.35v5.93c0,.17-.06.32-.17.44-.11.12-.27.18-.46.18h-2.22ZM342.38,48.14c.75,0,1.33-.16,1.75-.48.42-.32.72-.74.91-1.27s.3-1.1.34-1.72c.02-.52.02-1.05,0-1.57-.04-.63-.15-1.2-.34-1.72-.19-.52-.5-.94-.91-1.27-.42-.32-1-.48-1.75-.48s-1.29.17-1.74.5c-.44.33-.77.75-.97,1.27-.2.51-.32,1.04-.35,1.58-.02.31-.03.64-.03.99s0,.69.03,1.02c.02.52.14,1.02.37,1.5.23.48.56.88.99,1.19.44.31,1,.47,1.7.47Z"></path><path d="M357.46,50.94c-1.93,0-3.47-.56-4.6-1.67-1.13-1.11-1.74-2.7-1.83-4.75-.02-.17-.03-.4-.03-.67s0-.48.03-.64c.07-1.32.37-2.46.9-3.41.53-.95,1.27-1.68,2.21-2.19.94-.51,2.05-.77,3.32-.77,1.41,0,2.59.29,3.55.88.96.58,1.68,1.39,2.17,2.43.49,1.04.73,2.23.73,3.59v.55c0,.17-.06.32-.18.44-.12.12-.28.18-.47.18h-8.67v.21c.02.61.13,1.17.35,1.69.22.51.54.93.97,1.24.43.31.94.47,1.53.47.49,0,.9-.07,1.23-.22.33-.15.6-.32.81-.51.21-.19.36-.35.44-.47.16-.21.28-.34.38-.38.1-.04.24-.07.43-.07h2.25c.17,0,.32.05.43.16.11.1.16.24.14.39-.02.28-.16.62-.43,1.02-.27.4-.66.79-1.16,1.18-.51.38-1.14.7-1.89.95-.76.25-1.62.38-2.6.38ZM354.59,42.71h5.77v-.08c0-.68-.11-1.28-.34-1.79s-.56-.91-.99-1.2c-.44-.29-.96-.43-1.57-.43s-1.13.14-1.57.43c-.44.29-.76.69-.98,1.2-.22.51-.33,1.11-.33,1.79v.08Z"></path><path d="M161.44,69.69c-.26,0-.46-.07-.61-.22-.15-.15-.23-.33-.23-.54v-2.1c0-.21.08-.39.23-.54.15-.15.36-.22.61-.22h13.89c.23,0,.43.07.59.22.16.15.25.33.25.54v2.1c0,.21-.08.39-.25.54s-.36.22-.59.22h-13.89Z"></path><path d="M159.31,99.74c-.14,0-.27-.05-.38-.16-.11-.1-.17-.24-.17-.39,0-.07.02-.15.05-.24l6.3-16.85c.05-.17.15-.33.3-.46.15-.13.35-.2.61-.2h2.85c.26,0,.46.07.6.2.14.13.24.28.31.46l6.3,16.85c.02.09.03.17.03.24,0,.16-.05.29-.16.39s-.23.16-.37.16h-2.27c-.24,0-.42-.06-.54-.17-.11-.11-.19-.22-.22-.33l-1.23-3.19h-7.76l-1.23,3.19c-.04.1-.11.21-.22.33s-.29.17-.54.17h-2.27ZM164.48,93.05h5.93l-2.98-8.07-2.95,8.07Z"></path><path d="M178.83,99.74c-.17,0-.32-.06-.44-.18-.12-.12-.18-.27-.18-.44v-12.33c0-.17.06-.32.18-.44.12-.12.27-.18.44-.18h2.04c.17,0,.32.06.44.18.12.12.18.27.18.44v.89c.37-.49.86-.9,1.48-1.24.62-.34,1.35-.52,2.21-.54,1.99-.03,3.37.74,4.15,2.32.4-.7.98-1.26,1.74-1.68.76-.43,1.6-.64,2.52-.64s1.73.21,2.47.63c.74.42,1.32,1.05,1.75,1.89.43.84.64,1.91.64,3.2v7.5c0,.17-.06.32-.18.44-.12.12-.27.18-.44.18h-2.14c-.17,0-.32-.06-.44-.18-.12-.12-.18-.27-.18-.44v-7.29c0-.78-.11-1.41-.34-1.87-.23-.46-.53-.79-.91-.98-.38-.19-.81-.29-1.28-.29-.38,0-.77.1-1.15.29-.38.19-.7.52-.94.98-.24.46-.37,1.08-.37,1.87v7.29c0,.17-.06.32-.18.44s-.27.18-.44.18h-2.14c-.17,0-.32-.06-.44-.18-.12-.12-.18-.27-.18-.44v-7.29c0-.78-.12-1.41-.37-1.87-.24-.46-.56-.79-.94-.98-.38-.19-.79-.29-1.23-.29-.4,0-.79.1-1.18.3-.38.2-.7.53-.94.98-.24.45-.37,1.07-.37,1.85v7.29c0,.17-.06.32-.18.44-.12.12-.27.18-.44.18h-2.19Z"></path><path d="M206.55,100c-1.04,0-1.94-.12-2.68-.37-.74-.24-1.35-.55-1.82-.91s-.82-.73-1.05-1.1c-.23-.37-.35-.67-.37-.91-.02-.19.04-.34.17-.46.13-.11.27-.17.43-.17h2.06c.07,0,.13,0,.18.03.05.02.12.07.21.16.23.19.47.39.72.6.25.21.55.39.9.54.35.15.78.22,1.31.22.68,0,1.25-.13,1.71-.4.46-.27.69-.66.69-1.16,0-.37-.1-.66-.3-.89-.2-.23-.57-.43-1.11-.61-.54-.18-1.31-.38-2.3-.59-.98-.23-1.79-.51-2.43-.86-.64-.35-1.12-.78-1.44-1.31-.31-.52-.47-1.13-.47-1.83s.2-1.33.61-1.95c.41-.62,1.02-1.13,1.83-1.53.81-.4,1.82-.6,3.02-.6.94,0,1.76.12,2.46.35s1.28.53,1.74.88c.46.35.81.7,1.06,1.06.24.36.37.67.39.93.02.19-.04.34-.16.46-.12.11-.26.17-.42.17h-1.93c-.09,0-.17-.02-.24-.05-.07-.03-.14-.08-.21-.13-.19-.17-.4-.36-.63-.56-.23-.2-.5-.37-.82-.51-.32-.14-.74-.21-1.27-.21-.66,0-1.17.14-1.51.43-.35.29-.52.65-.52,1.08,0,.3.08.55.25.77.17.22.5.42,1.01.61.5.19,1.27.39,2.3.6,1.17.21,2.09.52,2.78.93.69.41,1.18.88,1.46,1.41.29.53.43,1.12.43,1.76,0,.78-.23,1.49-.69,2.12-.46.63-1.14,1.12-2.04,1.48-.9.36-2.01.54-3.33.54Z"></path><path d="M221.39,99.74c-1.05,0-1.92-.18-2.64-.55-.71-.37-1.25-.91-1.59-1.63-.35-.72-.52-1.62-.52-2.7v-5.93h-2.06c-.17,0-.32-.06-.44-.18-.12-.12-.18-.28-.18-.47v-1.49c0-.17.06-.32.18-.44s.27-.18.44-.18h2.06v-4.34c0-.17.06-.32.17-.44.11-.12.27-.18.46-.18h2.12c.17,0,.32.06.44.18.12.12.18.27.18.44v4.34h3.27c.17,0,.32.06.44.18.12.12.18.27.18.44v1.49c0,.19-.06.35-.18.47-.12.12-.27.18-.44.18h-3.27v5.67c0,.71.13,1.27.38,1.67.25.4.69.6,1.32.6h1.8c.17,0,.32.06.44.18.12.12.18.27.18.44v1.62c0,.17-.06.32-.18.44-.12.12-.27.18-.44.18h-2.12Z"></path><path d="M231.97,100c-1.93,0-3.47-.56-4.6-1.67-1.13-1.11-1.74-2.7-1.83-4.75-.02-.17-.03-.4-.03-.67s0-.48.03-.64c.07-1.32.37-2.46.9-3.41.53-.95,1.27-1.68,2.21-2.19.94-.51,2.05-.77,3.32-.77,1.41,0,2.59.29,3.55.88.96.58,1.68,1.39,2.17,2.43.49,1.04.73,2.23.73,3.59v.55c0,.17-.06.32-.18.44-.12.12-.28.18-.47.18h-8.67v.21c.02.61.13,1.17.35,1.69.22.51.54.93.97,1.24.43.31.94.47,1.53.47.49,0,.9-.07,1.23-.22.33-.15.6-.32.81-.51.21-.19.36-.35.44-.47.16-.21.28-.34.38-.38.1-.04.24-.07.43-.07h2.25c.17,0,.32.05.43.16.11.1.16.24.14.39-.02.28-.16.62-.43,1.02-.27.4-.66.79-1.16,1.18-.51.38-1.14.7-1.89.95-.76.25-1.62.38-2.6.38ZM229.1,91.77h5.77v-.08c0-.68-.11-1.28-.34-1.79s-.56-.91-.99-1.2c-.44-.29-.96-.43-1.57-.43s-1.13.14-1.57.43c-.44.29-.76.69-.98,1.2-.22.51-.33,1.11-.33,1.79v.08Z"></path><path d="M241.57,99.74c-.17,0-.32-.06-.44-.18-.12-.12-.18-.27-.18-.44v-12.3c0-.19.06-.35.18-.47.12-.12.27-.18.44-.18h2.12c.17,0,.33.06.46.18s.2.28.2.47v1.07c.4-.56.92-.98,1.55-1.28.64-.3,1.37-.44,2.21-.44h1.07c.19,0,.34.06.46.18.11.12.17.27.17.44v1.88c0,.17-.06.32-.17.44-.11.12-.27.18-.46.18h-2.04c-.84,0-1.48.23-1.95.69-.46.46-.69,1.11-.69,1.95v7.18c0,.17-.06.32-.18.44-.12.12-.28.18-.47.18h-2.27Z"></path><path d="M256.77,100c-.91,0-1.7-.15-2.39-.46-.69-.3-1.26-.74-1.71-1.29-.45-.56-.8-1.21-1.05-1.97-.24-.76-.38-1.59-.42-2.49-.02-.31-.03-.6-.03-.85s0-.54.03-.85c.03-.87.17-1.68.4-2.43.24-.75.58-1.41,1.04-1.97.46-.57,1.04-1.01,1.72-1.32.69-.31,1.48-.47,2.39-.47s1.74.16,2.39.48c.65.32,1.2.74,1.63,1.24v-5.8c0-.17.06-.32.17-.44.11-.12.27-.18.46-.18h2.22c.17,0,.32.06.44.18.12.12.18.27.18.44v17.29c0,.17-.06.32-.18.44-.12.12-.27.18-.44.18h-2.06c-.19,0-.34-.06-.46-.18-.11-.12-.17-.27-.17-.44v-.97c-.44.54-.99.98-1.66,1.33-.67.35-1.51.52-2.52.52ZM257.74,97.2c.73,0,1.31-.17,1.75-.5.44-.33.76-.75.97-1.27.21-.51.32-1.04.34-1.58.02-.31.03-.65.03-1.01s0-.69-.03-1.01c-.02-.52-.14-1.02-.37-1.5-.23-.48-.56-.88-.99-1.19-.44-.31-1-.47-1.7-.47-.73,0-1.31.16-1.74.48-.43.32-.74.74-.93,1.27-.19.52-.3,1.1-.34,1.72-.02.52-.02,1.04,0,1.57.04.63.15,1.2.34,1.72s.5.95.93,1.27c.43.32,1.01.48,1.74.48Z"></path><path d="M271.4,100c-.91,0-1.72-.18-2.46-.54-.73-.36-1.31-.84-1.74-1.44s-.64-1.28-.64-2.02c0-1.22.5-2.19,1.49-2.91.99-.72,2.29-1.21,3.89-1.45l3.58-.52v-.55c0-.73-.18-1.3-.55-1.7-.37-.4-.99-.6-1.88-.6-.63,0-1.14.13-1.53.38-.39.25-.68.59-.88,1.01-.14.23-.34.34-.6.34h-2.06c-.19,0-.34-.05-.43-.16-.1-.1-.14-.24-.14-.42.02-.28.13-.62.35-1.02.22-.4.55-.79.99-1.16.44-.37,1.02-.69,1.74-.95.71-.26,1.58-.39,2.59-.39,1.1,0,2.02.14,2.78.4.76.27,1.36.63,1.82,1.08.45.45.78.98.99,1.59.21.61.31,1.25.31,1.93v8.2c0,.17-.06.32-.18.44-.12.12-.27.18-.44.18h-2.12c-.19,0-.34-.06-.46-.18-.11-.12-.17-.27-.17-.44v-1.02c-.23.31-.53.62-.91.91-.38.3-.85.54-1.4.72-.55.18-1.2.27-1.95.27ZM272.29,97.52c.61,0,1.16-.13,1.66-.39s.89-.67,1.18-1.21c.29-.55.43-1.24.43-2.08v-.55l-2.61.42c-1.03.16-1.79.41-2.3.76-.51.35-.76.78-.76,1.28,0,.38.12.71.35.98.24.27.54.47.9.6.37.13.75.2,1.15.2Z"></path><path d="M282.73,99.74c-.17,0-.32-.06-.44-.18-.12-.12-.18-.27-.18-.44v-12.33c0-.17.06-.32.18-.44.12-.12.27-.18.44-.18h2.04c.17,0,.32.06.44.18.12.12.18.27.18.44v.89c.37-.49.86-.9,1.48-1.24.62-.34,1.35-.52,2.21-.54,1.99-.03,3.37.74,4.15,2.32.4-.7.98-1.26,1.74-1.68.76-.43,1.6-.64,2.52-.64s1.73.21,2.47.63c.74.42,1.32,1.05,1.75,1.89.43.84.64,1.91.64,3.2v7.5c0,.17-.06.32-.18.44s-.27.18-.44.18h-2.14c-.17,0-.32-.06-.44-.18-.12-.12-.18-.27-.18-.44v-7.29c0-.78-.11-1.41-.34-1.87-.23-.46-.53-.79-.91-.98-.38-.19-.81-.29-1.28-.29-.38,0-.77.1-1.15.29-.38.19-.7.52-.94.98-.24.46-.37,1.08-.37,1.87v7.29c0,.17-.06.32-.18.44-.12.12-.27.18-.44.18h-2.14c-.17,0-.32-.06-.44-.18-.12-.12-.18-.27-.18-.44v-7.29c0-.78-.12-1.41-.37-1.87-.24-.46-.56-.79-.94-.98-.38-.19-.79-.29-1.23-.29-.4,0-.79.1-1.18.3-.38.2-.7.53-.94.98-.24.45-.37,1.07-.37,1.85v7.29c0,.17-.06.32-.18.44-.12.12-.27.18-.44.18h-2.19Z"></path></g><g><polygon points="134.74 99.73 101.82 99.73 101.82 87.21 122.22 87.21 122.22 13.6 101.82 13.6 101.82 1.09 134.74 1.09 134.74 99.73"></polygon><polygon points="31.68 99.73 0 99.73 0 1.09 31.68 1.09 31.68 13.6 12.52 13.6 12.52 87.21 31.68 87.21 31.68 99.73"></polygon><g><path d="M68.01,60.04c0,10.96-6.82,19.37-21.03,19.37s-20.84-7.9-20.84-19.37V26.2c0-.13.13-.26.25-.26h11.79c.13,0,.25.13.25.26v32.12c0,7.01,2.48,10.64,8.35,10.64s8.92-3.63,8.92-10.64V26.2c0-.13.13-.26.25-.26h11.79c.13,0,.26.13.26.26v33.84h0Z"></path><path d="M76.4,66.61h32c.13,0,.26.13.26.26v9.96c0,.13-.13.26-.26.26h-32v-10.48Z"></path><path d="M76.4,46.28h26.35c.13,0,.26.13.26.26v9.92c0,.13-.13.26-.26.26h-26.35v-10.44Z"></path><path d="M76.4,25.95h31.96c.13,0,.26.13.26.26v9.95c0,.13-.13.26-.26.26h-31.96v-10.46Z"></path></g></g></svg>